<svg width="58" height="13" viewBox="0 0 58 13" fill="none" xmlns="http://www.w3.org/2000/svg">
<path fill-rule="evenodd" clip-rule="evenodd" d="M54.5907 1.74685C54.5907 0.86262 55.3075 0.145813 56.1917 0.145813C57.076 0.145813 57.7928 0.862621 57.7928 1.74685V11.3781C57.7928 12.2623 57.076 12.9791 56.1917 12.9791C55.3075 12.9791 54.5907 12.2623 54.5907 11.3781V8.16667H3.35753V11.3781C3.35753 12.2623 2.64072 12.9791 1.75649 12.9791C0.872265 12.9791 0.155457 12.2623 0.155457 11.3781V8.16667V6.5625V1.74685C0.155457 0.86262 0.872265 0.145813 1.75649 0.145813C2.64072 0.145813 3.35753 0.862621 3.35753 1.74685V6.5625H54.5907V1.74685Z" fill="#D7D7D7"/>
</svg>
