<svg width="352" height="253" viewBox="0 0 352 253" fill="none" xmlns="http://www.w3.org/2000/svg">
<path d="M80.5677 75.659C81.3137 76.1217 82.0462 76.5929 82.7775 77.0795C90.5034 96.4557 94.9146 116.986 95.8275 137.817C95.94 140.226 95.9971 142.632 95.9988 145.033C96.0653 163.042 93.4362 180.961 88.1982 198.196C87.9217 199.104 87.6394 200.008 87.351 200.908C87.1443 201.553 86.9339 202.206 86.7057 202.846C86.4631 203.175 86.224 203.497 85.9851 203.82C85.9682 203.834 85.9535 203.858 85.9364 203.872C85.8401 204.002 85.7438 204.133 85.6572 204.26C85.2439 204.813 84.8246 205.363 84.4115 205.915L84.7595 205.939L85.6317 205.994L85.6281 206C85.3353 205.994 85.0365 205.984 84.7412 205.969C84.6339 205.969 84.517 205.972 84.4075 205.962C84.3097 205.96 84.2062 205.955 84.1085 205.953C71.5317 205.613 58.6608 204.988 47.2161 199.861C35.2371 194.49 25.0757 182.878 25.5921 169.799C25.6648 168.086 25.9255 166.386 26.3696 164.73C26.555 164.038 26.7741 163.359 27.0088 162.68C29.9173 154.226 37.1786 147.995 45.9985 146.386C54.8185 144.777 63.8228 148.04 69.547 154.92C66.1139 141.47 51.376 134.608 38.1019 130.435C24.8181 126.265 9.87251 121.903 3.08591 109.785C-0.703176 103.042 -0.794411 95.1852 1.67802 87.9301C1.75329 87.7134 1.83235 87.4905 1.91734 87.2712C5.03123 78.735 11.2617 71.6843 19.3637 67.528C34.5442 60.0358 52.9902 62.6793 68.5444 69.3664C72.7059 71.158 76.7252 73.2616 80.5677 75.659Z" fill="#F2F2F2"/>
<path d="M36.6915 162.25C48.6269 163.356 59.8927 168.302 68.8234 176.358C76.4295 183.295 82.042 192.168 85.0717 202.046C85.248 202.611 85.4085 203.175 85.5593 203.741C85.8608 203.163 86.1538 202.571 86.4433 201.985C86.6296 201.61 86.8197 201.229 87 200.85C86.7933 201.504 86.5828 202.163 86.3545 202.811C86.1118 203.143 85.8726 203.469 85.6337 203.795C85.6167 203.81 85.602 203.834 85.5849 203.848C85.4886 203.98 85.3923 204.112 85.3057 204.241C84.8923 204.8 84.4728 205.356 84.0596 205.914L84.4077 205.938L85.2802 205.994L85.2766 206C84.9837 205.994 84.6848 205.984 84.3894 205.968C84.2821 205.969 84.1651 205.971 84.0556 205.962C84.0195 205.79 83.9739 205.621 83.9283 205.452C77.5337 179.072 52.8059 161.491 26 164.266C26.1854 163.567 26.4046 162.88 26.6393 162.194C29.9853 161.918 33.3487 161.937 36.6915 162.25Z" fill="white"/>
<path d="M76.7691 112.947C81.5403 116.524 85.7637 120.779 89.3055 125.577C91.1509 128.135 92.7542 130.859 94.0946 133.715C94.7301 135.04 95.3086 136.404 95.8293 137.782C95.9414 140.192 95.9983 142.598 96 145C95.5578 143.184 95.0188 141.393 94.3856 139.634C94.0561 138.669 93.6903 137.722 93.3015 136.786C88.9414 126.307 81.0419 118.034 71.7253 111.743C61.7418 105.012 50.4868 99.9596 39.0805 96.2025C27.3909 92.334 15.2714 89.9139 2.99327 88.9962C2.41722 88.9495 1.97987 88.4576 2.00071 87.8797C1.99128 87.6373 2.07687 87.4008 2.23922 87.2206C2.41413 87.0492 2.65994 86.971 2.90169 87.0098C4.41687 87.1232 5.92811 87.243 7.43928 87.4033C20.013 88.6991 32.3768 91.5546 44.2461 95.904C55.7041 100.087 67.0438 105.512 76.7691 112.947Z" fill="white"/>
<circle cx="14" cy="51" r="4" fill="#F2F2F2"/>
<rect x="82" y="90" width="191" height="163" fill="white"/>
<path fill-rule="evenodd" clip-rule="evenodd" d="M126.39 179.078C134.223 172.958 135.475 161.469 129.184 153.418C122.894 145.367 111.444 143.801 103.61 149.922C95.8272 156.003 94.5419 167.382 100.695 175.425C102.607 173.968 105.002 172.303 105.002 172.303C106.347 171.252 106.2 170.173 106.024 168.872C105.927 168.15 105.82 167.36 105.953 166.468C106.332 163.951 106.675 158.647 105.297 155.753C104.37 153.818 106.514 153.35 107.749 153.807C109.598 154.486 110.074 156.73 110.505 158.757C110.541 158.928 110.577 159.097 110.613 159.264C111.014 161.111 112.302 162.555 113.882 161.007C114.537 160.365 115.052 159.848 115.514 159.383C116.396 158.497 117.085 157.804 118.19 156.816C119.893 155.295 121.012 155.565 121.529 156.226C122.044 156.885 122.124 157.277 122.186 157.576C122.224 157.762 122.255 157.912 122.377 158.069C122.491 158.214 122.713 158.138 122.998 158.041C123.515 157.864 124.241 157.615 124.916 158.479C125.602 159.357 125.364 160.003 125.199 160.45C125.112 160.686 125.046 160.866 125.147 160.995C125.256 161.134 125.487 161.132 125.778 161.129C126.27 161.124 126.932 161.117 127.46 161.792C127.971 162.446 127.688 163.163 127.467 163.725C127.325 164.085 127.208 164.381 127.343 164.555C127.499 164.754 127.695 164.815 127.912 164.882C128.176 164.963 128.471 165.054 128.757 165.42C129.276 166.085 128.985 168.665 123.933 172.611C118.82 176.606 116.554 177.243 114.714 177.76C113.457 178.113 112.399 178.41 110.768 179.684C110.768 179.684 109.636 180.494 108.334 181.357C114.207 183.835 121.117 183.198 126.39 179.078Z" fill="#3175EC"/>
<path fill-rule="evenodd" clip-rule="evenodd" d="M81 253H273V89H81V253ZM271.89 251.888H82.1098V90.1119H271.89V251.888Z" fill="#3F3D56"/>
<rect x="153" y="121" width="48" height="131" fill="#3175EC"/>
<rect x="153" y="121" width="48" height="131" fill="#3175EC"/>
<path opacity="0.2" d="M82 102V128.676L272 141L271.44 108.084L82 102Z" fill="black"/>
<rect x="71" y="75" width="213" height="47" fill="white"/>
<path fill-rule="evenodd" clip-rule="evenodd" d="M70 122H284V74H70V122ZM282.891 120.884H71.1088V75.1163H282.891V120.884Z" fill="#3F3D56"/>
<rect x="153" y="70" width="48" height="51" fill="#3175EC"/>
<path d="M172.18 26.0211C184.834 44.7988 172.912 75 172.912 75C172.912 75 140.474 74.7566 127.82 55.9789C115.166 37.2012 127.088 7 127.088 7C127.088 7 159.526 7.24343 172.18 26.0211Z" fill="#3175EC"/>
<path d="M177.82 26.0211C165.166 44.7988 177.088 75 177.088 75C177.088 75 209.526 74.7566 222.18 55.9789C234.834 37.2012 222.912 7 222.912 7C222.912 7 190.474 7.24343 177.82 26.0211Z" fill="#3175EC"/>
<circle cx="144" cy="35" r="5" fill="#3F3D56"/>
<circle cx="174" cy="86" r="5" fill="#3F3D56"/>
<circle cx="174" cy="195" r="5" fill="#3F3D56"/>
<circle cx="157.5" cy="53.5" r="3.5" fill="#3F3D56"/>
<circle cx="207.5" cy="25.5" r="3.5" fill="#3F3D56"/>
<circle cx="185.5" cy="103.5" r="3.5" fill="#3F3D56"/>
<circle cx="165.5" cy="146.5" r="3.5" fill="#3F3D56"/>
<circle cx="182.5" cy="161.5" r="3.5" fill="#3F3D56"/>
<circle cx="178.5" cy="224.5" r="3.5" fill="#3F3D56"/>
<rect x="244" y="166" width="102" height="87" fill="white"/>
<path fill-rule="evenodd" clip-rule="evenodd" d="M256.805 226.828C261.438 229.291 267.295 227.335 269.888 222.458C272.481 217.582 270.827 211.632 266.195 209.169C261.636 206.745 255.891 208.601 253.238 213.307C254.396 213.928 255.924 214.854 255.924 214.854C256.722 215.279 257.216 214.968 257.812 214.594C258.143 214.386 258.505 214.159 258.968 214.026C260.274 213.653 262.93 212.645 264.046 211.331C264.791 210.449 265.475 211.393 265.515 212.097C265.578 213.151 264.587 213.881 263.691 214.541C263.616 214.597 263.541 214.652 263.468 214.706C262.653 215.312 262.224 216.261 263.314 216.689C263.766 216.867 264.127 217.004 264.452 217.127C265.071 217.361 265.555 217.545 266.271 217.865C267.374 218.36 267.481 218.967 267.269 219.366C267.057 219.763 266.884 219.89 266.751 219.986C266.669 220.046 266.602 220.094 266.552 220.189C266.505 220.277 266.589 220.368 266.697 220.486C266.893 220.699 267.169 220.999 266.892 221.52C266.61 222.05 266.245 222.077 265.993 222.095C265.859 222.105 265.757 222.113 265.716 222.191C265.671 222.275 265.721 222.387 265.785 222.528C265.892 222.768 266.036 223.09 265.82 223.497C265.61 223.892 265.2 223.913 264.88 223.929C264.674 223.939 264.505 223.948 264.449 224.053C264.385 224.173 264.398 224.282 264.411 224.403C264.428 224.55 264.446 224.714 264.329 224.935C264.115 225.336 262.797 225.765 259.801 224.172C256.767 222.559 255.975 221.593 255.332 220.809C254.893 220.273 254.523 219.822 253.556 219.308C253.556 219.308 252.701 218.805 251.887 218.271C251.839 221.784 253.616 225.132 256.805 226.828Z" fill="#3175EC"/>
<path fill-rule="evenodd" clip-rule="evenodd" d="M244 253H346V166H244V253ZM345.41 252.41H244.59V166.59H345.41V252.41Z" fill="#3F3D56"/>
<rect x="282" y="183" width="25" height="70" fill="#3175EC"/>
<rect x="282" y="183" width="25" height="70" fill="#3175EC"/>
<path opacity="0.2" d="M244 172V186.364L345 193L344.702 175.276L244 172Z" fill="black"/>
<rect x="238" y="158" width="113" height="25" fill="white"/>
<path fill-rule="evenodd" clip-rule="evenodd" d="M238 183H352V158H238V183ZM351.409 182.419H238.591V158.581H351.409V182.419Z" fill="#3F3D56"/>
<rect x="282" y="156" width="25" height="27" fill="#3175EC"/>
<path d="M291.882 132.07C298.661 142.011 292.274 158 292.274 158C292.274 158 274.897 157.871 268.118 147.93C261.339 137.989 267.726 122 267.726 122C267.726 122 285.103 122.129 291.882 132.07Z" fill="#3175EC"/>
<path d="M295.118 132.07C288.339 142.011 294.726 158 294.726 158C294.726 158 312.103 157.871 318.882 147.93C325.661 137.989 319.274 122 319.274 122C319.274 122 301.897 122.129 295.118 132.07Z" fill="#3175EC"/>
<circle cx="276.5" cy="137.5" r="2.5" fill="#3F3D56"/>
<circle cx="292.5" cy="164.5" r="2.5" fill="#3F3D56"/>
<circle cx="292.5" cy="222.5" r="2.5" fill="#3F3D56"/>
<circle cx="284" cy="147" r="2" fill="#3F3D56"/>
<circle cx="311" cy="132" r="2" fill="#3F3D56"/>
<circle cx="299" cy="174" r="2" fill="#3F3D56"/>
<circle cx="288" cy="197" r="2" fill="#3F3D56"/>
<circle cx="298" cy="205" r="2" fill="#3F3D56"/>
<circle cx="296" cy="238" r="2" fill="#3F3D56"/>
<ellipse cx="159.794" cy="207.71" rx="3.75267" ry="11.9538" transform="rotate(-64.6257 159.794 207.71)" fill="#2F2E41"/>
<ellipse cx="212.151" cy="222.954" rx="3.75267" ry="11.9538" transform="rotate(-39.9384 212.151 222.954)" fill="#2F2E41"/>
<circle cx="187" cy="219" r="24" fill="#2F2E41"/>
<rect x="190" y="238" width="7" height="13" fill="#2F2E41"/>
<rect x="175" y="238" width="7" height="13" fill="#2F2E41"/>
<ellipse cx="191" cy="250.5" rx="6" ry="2.5" fill="#2F2E41"/>
<ellipse cx="176" cy="250.5" rx="6" ry="2.5" fill="#2F2E41"/>
<path d="M179.337 188.873C181.463 180.28 190.85 175.223 200.303 177.578C209.756 179.933 215.695 188.808 213.568 197.401C211.442 205.994 204.387 206.022 194.934 203.667C185.481 201.312 177.21 197.466 179.337 188.873Z" fill="#E6E6E6"/>
<path fill-rule="evenodd" clip-rule="evenodd" d="M194.562 197.301C197.635 198.542 201.215 196.85 202.56 193.522C203.905 190.193 202.504 186.489 199.432 185.247C196.388 184.017 192.845 185.667 191.472 188.934C192.287 189.264 193.398 189.785 193.398 189.785C193.956 190.011 194.258 189.781 194.622 189.505C194.824 189.352 195.044 189.184 195.339 189.072C196.171 188.754 197.842 187.948 198.476 187.036C198.898 186.424 199.422 186.991 199.503 187.442C199.626 188.116 199.03 188.645 198.491 189.123C198.445 189.163 198.401 189.203 198.356 189.242C197.867 189.68 197.658 190.316 198.409 190.527C198.72 190.615 198.969 190.682 199.193 190.742C199.619 190.856 199.952 190.945 200.448 191.109C201.214 191.362 201.331 191.746 201.222 192.015C201.114 192.284 201.009 192.375 200.929 192.445C200.88 192.489 200.839 192.524 200.814 192.587C200.79 192.647 200.852 192.7 200.933 192.77C201.078 192.895 201.283 193.072 201.141 193.424C200.997 193.782 200.758 193.821 200.593 193.847C200.506 193.862 200.439 193.872 200.418 193.925C200.395 193.982 200.437 194.051 200.49 194.138C200.579 194.286 200.699 194.485 200.588 194.76C200.48 195.026 200.212 195.064 200.002 195.093C199.868 195.112 199.757 195.128 199.728 195.198C199.695 195.28 199.712 195.349 199.73 195.426C199.753 195.52 199.777 195.624 199.717 195.773C199.608 196.044 198.772 196.399 196.675 195.551C194.551 194.693 193.955 194.118 193.47 193.652C193.139 193.333 192.861 193.065 192.183 192.791C192.183 192.791 191.541 192.501 190.947 192.195C191.137 194.444 192.457 196.45 194.562 197.301Z" fill="#2F2E41"/>
<circle cx="183" cy="214" r="8" fill="white"/>
<circle cx="179.5" cy="210.5" r="2.5" fill="#3F3D56"/>
<path d="M187.911 230.76C188.263 232.62 187.556 234.519 186.057 235.743C184.558 236.966 182.494 237.328 180.642 236.691C178.791 236.054 177.433 234.516 177.081 232.655L177.079 232.645C176.538 229.769 178.85 228.751 181.841 228.23C184.832 227.71 187.369 227.883 187.911 230.76Z" fill="white"/>
<ellipse cx="233.626" cy="35.2785" rx="11.9538" ry="3.75267" transform="rotate(-22.4424 233.626 35.2785)" fill="#2F2E41"/>
<ellipse cx="285.982" cy="46.0821" rx="3.75267" ry="11.9538" transform="rotate(-39.9384 285.982 46.0821)" fill="#2F2E41"/>
<circle cx="261" cy="42" r="24" fill="#2F2E41"/>
<rect x="264" y="61" width="7" height="13" fill="#2F2E41"/>
<rect x="249" y="61" width="7" height="13" fill="#2F2E41"/>
<ellipse cx="265" cy="73.5" rx="6" ry="2.5" fill="#2F2E41"/>
<ellipse cx="250" cy="73.5" rx="6" ry="2.5" fill="#2F2E41"/>
<path d="M253.337 11.8726C255.463 3.27955 264.85 -1.77729 274.303 0.577858C283.756 2.933 289.695 11.8083 287.568 20.4014C285.442 28.9945 278.387 29.0222 268.934 26.667C259.481 24.3119 251.21 20.4657 253.337 11.8726Z" fill="#3175EC"/>
<path fill-rule="evenodd" clip-rule="evenodd" d="M268.202 19.9966C271.275 21.2379 274.856 19.546 276.2 16.2175C277.545 12.8891 276.145 9.18451 273.072 7.94318C270.028 6.71338 266.485 8.36258 265.112 11.6298C265.927 11.96 267.038 12.481 267.038 12.481C267.597 12.7066 267.898 12.4774 268.262 12.2012C268.464 12.0479 268.685 11.88 268.979 11.7675C269.811 11.4498 271.483 10.6438 272.116 9.73171C272.539 9.12008 273.063 9.68676 273.143 10.1378C273.267 10.8122 272.67 11.3408 272.131 11.8186C272.086 11.8588 272.041 11.8986 271.997 11.9381C271.507 12.376 271.298 13.0121 272.049 13.2234C272.361 13.3112 272.609 13.3778 272.833 13.4376C273.259 13.5517 273.592 13.6409 274.089 13.8047C274.854 14.0577 274.971 14.4419 274.862 14.7113C274.754 14.9795 274.649 15.0711 274.569 15.1411C274.52 15.1845 274.48 15.2196 274.454 15.2833C274.43 15.3426 274.492 15.3964 274.573 15.4658C274.719 15.5914 274.923 15.7679 274.781 16.12C274.637 16.4775 274.398 16.5164 274.233 16.5433C274.146 16.5575 274.08 16.5684 274.058 16.6211C274.035 16.6778 274.077 16.7471 274.13 16.8343C274.219 16.9819 274.339 17.1807 274.228 17.4558C274.121 17.7221 273.852 17.7598 273.643 17.7893C273.508 17.8082 273.397 17.8238 273.368 17.8944C273.336 17.9756 273.352 18.0452 273.37 18.1219C273.393 18.2158 273.418 18.3203 273.357 18.4694C273.248 18.7403 272.413 19.0946 270.315 18.2471C268.192 17.3892 267.595 16.8144 267.11 16.3478C266.779 16.029 266.501 15.7608 265.824 15.4872C265.824 15.4872 265.182 15.1965 264.587 14.8905C264.777 17.1399 266.098 19.1462 268.202 19.9966Z" fill="white"/>
<circle cx="257" cy="37" r="8" fill="white"/>
<circle cx="253.5" cy="37.5" r="2.5" fill="#3F3D56"/>
<path d="M261.91 53.7593C262.454 56.6347 260.472 59.3901 257.481 59.9135C254.491 60.437 251.625 58.5303 251.081 55.6549L251.079 55.6446C250.538 52.7687 252.85 51.751 255.841 51.2304C258.832 50.7097 261.369 50.8833 261.91 53.7593Z" fill="white"/>
<circle cx="56" cy="219" r="24" fill="#2F2E41"/>
<rect x="45" y="238" width="7" height="13" fill="#2F2E41"/>
<rect x="60" y="238" width="7" height="13" fill="#2F2E41"/>
<ellipse cx="51" cy="250.5" rx="6" ry="2.5" fill="#2F2E41"/>
<ellipse cx="66" cy="250.5" rx="6" ry="2.5" fill="#2F2E41"/>
<path d="M33.3509 196.633C31.4345 188.14 37.5603 179.557 47.0333 177.464C56.5063 175.371 65.7391 180.559 67.6554 189.052C69.5718 197.546 63.2937 200.679 53.8208 202.772C44.3479 204.865 35.2672 205.127 33.3509 196.633Z" fill="#3175EC"/>
<path fill-rule="evenodd" clip-rule="evenodd" d="M51.9004 196.716C55.0693 195.748 56.7873 192.179 55.7378 188.746C54.6882 185.313 51.2684 183.316 48.0995 184.284C44.9601 185.244 43.2446 188.756 44.2336 192.159C45.0745 191.903 46.2659 191.608 46.2659 191.608C46.8419 191.432 46.9321 191.064 47.0408 190.621C47.1012 190.375 47.1673 190.105 47.3254 189.832C47.7719 189.062 48.5637 187.384 48.482 186.276C48.4254 185.535 49.1893 185.646 49.5359 185.945C50.0561 186.392 49.9252 187.178 49.8069 187.888C49.797 187.948 49.7871 188.007 49.7777 188.066C49.6728 188.714 49.9105 189.34 50.6275 189.032C50.9247 188.904 51.16 188.799 51.3712 188.705C51.7741 188.526 52.0891 188.385 52.5782 188.2C53.332 187.915 53.665 188.14 53.75 188.418C53.8346 188.694 53.8109 188.831 53.7928 188.936C53.7816 189.001 53.7725 189.054 53.7926 189.119C53.8113 189.18 53.8937 189.183 53.9998 189.186C54.1921 189.192 54.4624 189.2 54.5734 189.564C54.6862 189.932 54.5253 190.113 54.4141 190.237C54.3553 190.303 54.3104 190.354 54.327 190.408C54.3449 190.466 54.4211 190.494 54.5169 190.528C54.6791 190.587 54.8976 190.666 54.9843 190.95C55.0683 191.224 54.8836 191.422 54.7391 191.577C54.6462 191.677 54.57 191.759 54.5922 191.832C54.6178 191.915 54.6745 191.959 54.7369 192.007C54.8134 192.066 54.8984 192.132 54.9454 192.285C55.0308 192.565 54.6048 193.366 52.4412 194.027C50.2511 194.697 49.4256 194.626 48.7554 194.568C48.2976 194.529 47.9123 194.495 47.2139 194.709C47.2139 194.709 46.532 194.887 45.8773 195.023C47.441 196.652 49.7295 197.38 51.9004 196.716Z" fill="white"/>
<ellipse cx="78.8208" cy="205.413" rx="13.2632" ry="4.16372" transform="rotate(-45.0221 78.8208 205.413)" fill="#2F2E41"/>
<ellipse cx="27.358" cy="207.078" rx="4.16372" ry="13.2632" transform="rotate(-44.9779 27.358 207.078)" fill="#2F2E41"/>
<circle cx="55" cy="215" r="8" fill="white"/>
<circle cx="54.5" cy="215.5" r="2.5" fill="#3F3D56"/>
<path d="M61.9109 230.76C62.2631 232.62 61.5564 234.519 60.0571 235.743C58.5578 236.966 56.4936 237.328 54.6421 236.691C52.7906 236.054 51.4331 234.516 51.0809 232.655L51.079 232.645C50.5375 229.769 52.8502 228.751 55.8413 228.23C58.8324 227.71 61.3694 227.883 61.9109 230.76Z" fill="white"/>
</svg>
