<svg width="35" height="41" viewBox="0 0 35 41" fill="none" xmlns="http://www.w3.org/2000/svg">
<path fill-rule="evenodd" clip-rule="evenodd" d="M3.68421 0C1.65789 0 0 1.67727 0 3.72727V27.9545C0 28.9833 0.825263 29.8182 1.84211 29.8182C2.85895 29.8182 3.68421 28.9833 3.68421 27.9545V3.72727H23.9474C24.9642 3.72727 25.7895 2.89236 25.7895 1.86364C25.7895 0.834909 24.9642 0 23.9474 0H3.68421ZM11.0526 7.45455C9.02632 7.45455 7.36842 9.13182 7.36842 11.1818V37.2727C7.36842 39.3227 9.02632 41 11.0526 41H31.3158C33.3421 41 35 39.3227 35 37.2727V18.3161C35 17.3283 34.6114 16.3796 33.9206 15.6808L26.8688 8.54652C26.178 7.84766 25.2403 7.45455 24.264 7.45455H11.0526ZM21.8462 20.4563H20.9108C20.3581 20.4563 20.076 21.1313 20.4646 21.5301L22.2024 23.3137L18.4211 27.1392L16.0357 24.7296C15.3172 24.0009 14.1547 24.0009 13.4344 24.7296C12.716 25.4564 12.716 26.6362 13.4344 27.3649L17.1942 31.1722C17.8721 31.8562 18.9683 31.8562 19.6443 31.1722L19.7235 31.0922L24.8288 25.9271L26.5738 27.6415C26.9699 28.031 27.6316 27.7493 27.6316 27.1902V26.3967V21.4245V21.3881C27.6316 20.8738 27.2189 20.4563 26.7105 20.4563H26.6745H21.8462Z" fill="white"/>
</svg>
